# xmcd
#
# Track frame offsets:
#  150
#  20255
#  38861
#  59675
#  81466
#  99365
#  116118
#  133090
#  151236
#  174598
#  195743
#  215044
#  238363
#  254923
#  276096
#  294879
#
# Disc length: 4218 seconds
#
# Revision: 0
# Processed by: cddbd v1.5.1PL2 Copyright (c) Steve Scherf et al.
# Submitted via: Collectorz.com_Music_Collector 6.11
#
DISCID=f7107810
DTITLE=Curtis Stigers - The Best Of 1991-1999
DYEAR=2005
DGENRE=Rock
TTITLE0=I Wonder Why
TTITLE1=Every Time You Cry
TTITLE2=You're All That Matters To Me
TTITLE3=The Last Embrace
TTITLE4=Keep Me From The Cold
TTITLE5=Cry
TTITLE6=Undertow
TTITLE7=Sleeping With The Lights On
TTITLE8=Time Was
TTITLE9=She's Fading Away
TTITLE10=The Ghost Of You And Me
TTITLE11=Anything You Want
TTITLE12=Never Saw A Miracle
TTITLE13=This Time
TTITLE14=Brighter Days
TTITLE15=Don't Go Far
EXTD=
EXTT0=
EXTT1=
EXTT2=
EXTT3=
EXTT4=
EXTT5=
EXTT6=
EXTT7=
EXTT8=
EXTT9=
EXTT10=
EXTT11=
EXTT12=
EXTT13=
EXTT14=
EXTT15=
PLAYORDER=
